<svg width="50.000000" height="50.000000" viewBox="0 0 50 50" fill="none" xmlns="http://www.w3.org/2000/svg" xmlns:xlink="http://www.w3.org/1999/xlink">
	<desc>
			Created with Pixso.
	</desc>
	<defs/>
	<rect id="组合 108" rx="8.000000" width="50.000000" height="50.000000" fill="#000000" fill-opacity="1.000000"/>
	<path id="矢量 2" d="M5 22L9.28 22L9.28 19L12.14 19L12.14 22L16.42 22L16.42 25L15 25L15 31L12.14 31L12.14 25L9.28 25L9.28 31L6.42 31L6.42 25L5 25L5 22ZM20.71 19L23.57 19L23.57 31L20.71 31L20.71 19ZM25 22L26.42 22L26.42 19L29.28 19L29.28 22L30.71 22L30.71 31L25 31L25 28L26.42 28L26.42 25L25 25L25 22ZM40.71 20.5C40.71 21.32 40.07 22 39.28 22C38.49 22 37.85 21.32 37.85 20.5C37.85 19.67 38.49 19 39.28 19C40.07 19 40.71 19.67 40.71 20.5ZM33.57 22L45 22L45 25L44.42 25L44.42 28L45 28L45 31L40.71 31L40.71 28L37.28 28L37.28 25L36.42 25L36.42 31L33.57 31L33.57 22ZM20.71 26.5C20.71 27.32 20.07 28 19.28 28L19.28 25C20.07 25 20.71 25.67 20.71 26.5ZM23.99 25.43C24.24 25.16 24.6 25 25 25L25 28C24.63 27.99 24.26 27.85 23.99 27.56C23.73 27.28 23.57 26.91 23.57 26.5L23.57 26.5C23.57 26.11 23.71 25.73 23.99 25.43ZM12.14 28C12.14 28.82 11.5 29.5 10.71 29.5C9.92 29.5 9.28 28.82 9.28 28C9.28 27.17 9.92 26.5 10.71 26.5C11.5 26.5 12.14 27.17 12.14 28Z" fill="#FFFFFF" fill-opacity="1.000000" fill-rule="evenodd"/>
</svg>
