<?xml version="1.0" encoding="UTF-8" standalone="no"?>
<!DOCTYPE svg PUBLIC "-//W3C//DTD SVG 1.1//EN" "http://www.w3.org/Graphics/SVG/1.1/DTD/svg11.dtd">
<svg xmlns="http://www.w3.org/2000/svg" version="1.1" viewBox="0.00 0.00 320.00 320.00">
<path fill="#ffffff" d="
  M 36.35 179.88
  Q 36.74 181.46 37.13 179.88
  Q 45.03 148.01 52.80 116.72
  Q 53.83 112.57 55.07 111.10
  C 57.62 108.08 61.02 108.41 64.59 108.36
  C 70.27 108.27 74.27 112.97 72.89 118.51
  Q 60.38 168.80 48.93 215.17
  C 47.93 219.24 44.89 221.53 40.58 221.59
  Q 36.48 221.64 32.54 221.57
  C 28.96 221.50 25.71 219.39 24.83 215.89
  Q 12.28 165.94 0.41 117.51
  C -0.42 114.12 2.12 110.37 5.11 109.07
  C 7.50 108.03 9.93 108.52 12.49 108.40
  C 16.24 108.22 19.32 111.17 20.17 114.60
  Q 28.16 146.80 36.35 179.88
  Z"
/>
<path fill="#ffffff" d="
  M 134.56 149.05
  Q 134.37 144.02 134.55 137.59
  C 134.68 132.77 131.13 129.17 126.30 129.20
  Q 114.00 129.30 103.96 129.25
  A 0.38 0.38 0.0 0 0 103.57 129.63
  Q 103.53 170.37 103.58 211.62
  Q 103.58 215.97 100.63 218.80
  C 94.09 225.07 83.16 220.86 83.15 211.57
  Q 83.09 165.32 83.18 119.56
  C 83.19 114.78 85.02 110.85 89.74 109.12
  Q 92.08 108.27 94.97 108.31
  Q 110.80 108.52 126.13 108.30
  Q 133.82 108.20 138.21 109.43
  C 145.63 111.53 152.19 118.24 154.20 125.88
  Q 155.27 129.95 155.15 135.96
  Q 154.94 146.34 155.13 156.72
  Q 155.23 162.58 153.77 165.20
  Q 150.84 170.45 143.97 170.34
  Q 135.93 170.21 125.67 170.38
  Q 122.16 170.44 119.63 169.23
  C 114.22 166.63 112.34 159.76 115.60 154.63
  Q 118.55 150.01 124.25 149.82
  Q 128.97 149.65 133.82 149.80
  Q 134.59 149.82 134.56 149.05
  Z"
/>
<path fill="#ffffff" d="
  M 165.81 128.24
  C 167.46 119.38 173.78 111.89 182.62 109.38
  Q 186.35 108.33 191.19 108.35
  Q 210.45 108.43 227.08 108.38
  C 237.88 108.36 241.45 122.86 231.84 127.79
  Q 229.61 128.92 226.58 128.91
  Q 211.03 128.84 194.53 128.88
  C 189.04 128.90 185.96 132.61 185.97 137.80
  Q 186.04 166.40 185.97 192.83
  C 185.96 197.69 189.67 201.05 194.44 201.03
  Q 211.41 200.97 227.26 201.02
  C 234.76 201.05 239.46 208.75 236.56 215.35
  Q 233.81 221.62 226.13 221.61
  Q 207.88 221.56 190.08 221.61
  Q 181.27 221.63 174.34 216.18
  Q 165.22 208.99 165.34 195.25
  Q 165.57 169.58 165.35 142.32
  Q 165.26 131.23 165.81 128.24
  Z"
/>
<path fill="#ffffff" d="
  M 320.00 129.65
  L 320.00 200.01
  Q 315.78 221.47 293.61 221.50
  Q 273.84 221.53 258.50 221.48
  Q 251.64 221.45 248.90 215.38
  C 245.89 208.68 250.74 201.03 258.25 201.01
  Q 274.42 200.98 291.42 201.00
  Q 293.61 201.01 295.43 199.92
  C 298.64 198.02 299.47 195.28 299.46 191.78
  Q 299.43 166.40 299.45 137.14
  C 299.45 132.26 295.91 128.95 290.83 128.92
  Q 274.80 128.83 258.50 128.90
  C 250.39 128.93 245.32 121.00 249.05 113.81
  Q 250.87 110.30 254.33 109.07
  Q 256.26 108.38 259.72 108.37
  Q 288.59 108.28 297.99 108.50
  Q 303.37 108.63 308.94 112.32
  Q 318.17 118.43 320.00 129.65
  Z"
/>
<rect fill="#ffffff" x="248.05" y="139.33" width="20.40" height="51.24" rx="9.80"/>
<rect fill="#ffffff" x="-10.26" y="-20.50" transform="translate(137.55,204.29) rotate(-45.0)" width="20.52" height="41.00" rx="9.90"/>
</svg>
