<?xml version="1.0" encoding="UTF-8" standalone="no"?>
<!DOCTYPE svg PUBLIC "-//W3C//DTD SVG 1.1//EN" "http://www.w3.org/Graphics/SVG/1.1/DTD/svg11.dtd">
<svg xmlns="http://www.w3.org/2000/svg" version="1.1" viewBox="0.00 0.00 320.00 320.00">
<path fill="#000000" d="
  M 36.81 180.43
  Q 36.98 180.26 37.03 180.04
  Q 45.19 147.27 53.09 115.30
  C 54.10 111.20 56.60 108.46 61.08 108.40
  C 63.39 108.37 66.08 108.05 68.22 108.99
  C 72.01 110.65 73.93 114.31 72.95 118.27
  Q 60.99 166.60 48.79 215.66
  C 47.89 219.27 44.85 221.40 41.08 221.57
  Q 36.80 221.77 32.39 221.57
  C 28.25 221.38 25.53 219.04 24.59 215.24
  Q 13.47 170.52 0.63 118.72
  C -0.40 114.57 1.19 110.86 5.17 109.00
  C 7.24 108.03 9.82 108.42 12.08 108.37
  C 17.70 108.25 19.50 111.84 20.80 116.99
  Q 28.65 148.14 36.07 179.09
  Q 36.20 179.65 36.29 180.27
  Q 36.37 180.90 36.81 180.43
  Z"
/>
<path fill="#000000" d="
  M 103.96 129.23
  A 0.31 0.30 -89.0 0 0 103.66 129.53
  Q 103.55 169.26 103.66 210.47
  Q 103.67 213.84 102.72 215.94
  C 100.50 220.82 94.74 223.04 89.74 221.15
  C 86.09 219.77 83.16 216.11 83.16 212.08
  Q 83.06 167.00 83.13 119.29
  C 83.13 112.40 87.78 108.20 94.55 108.30
  Q 109.80 108.54 127.34 108.29
  Q 134.16 108.19 138.47 109.49
  C 145.89 111.74 152.28 118.34 154.27 126.03
  Q 155.29 129.98 155.19 135.14
  Q 154.95 146.65 155.22 157.33
  Q 155.34 162.00 154.01 164.72
  C 151.58 169.68 147.46 170.40 142.04 170.38
  Q 132.77 170.35 123.50 170.35
  Q 118.79 170.35 115.77 165.56
  Q 112.07 159.71 115.59 154.57
  Q 118.84 149.79 124.64 149.76
  Q 129.25 149.74 133.85 149.76
  Q 134.54 149.77 134.53 149.07
  Q 134.42 144.20 134.56 138.04
  C 134.68 132.74 131.26 129.15 125.95 129.20
  Q 114.11 129.31 103.96 129.23
  Z"
/>
<path fill="#000000" d="
  M 191.28 200.51
  A 7.32 7.18 -34.0 0 0 193.77 200.97
  Q 209.00 201.06 225.78 200.95
  Q 228.96 200.93 231.40 201.93
  C 237.60 204.50 239.29 212.43 235.27 217.60
  Q 232.14 221.63 226.62 221.62
  Q 207.80 221.61 189.78 221.61
  C 175.98 221.61 165.42 210.85 165.40 197.06
  Q 165.35 159.93 165.40 133.30
  C 165.42 118.41 176.18 108.26 190.60 108.33
  Q 210.46 108.41 227.61 108.40
  Q 231.02 108.40 233.70 110.75
  C 239.24 115.63 238.66 124.56 231.82 127.82
  Q 229.34 129.00 225.69 128.96
  Q 210.08 128.76 194.28 128.92
  C 189.20 128.97 185.98 132.62 185.99 137.51
  Q 186.03 164.15 185.97 192.81
  C 185.96 196.32 187.97 199.24 191.28 200.51
  Z"
/>
<path fill="#000000" d="
  M 320.00 129.61
  L 320.00 200.03
  C 318.15 212.63 308.51 221.50 295.71 221.57
  Q 277.31 221.67 258.67 221.60
  C 244.50 221.55 244.43 200.84 258.90 200.93
  Q 274.75 201.04 290.82 201.00
  Q 293.41 201.00 295.29 199.96
  C 298.62 198.12 299.46 195.18 299.44 191.63
  Q 299.30 165.26 299.42 137.50
  C 299.44 132.53 296.19 128.99 291.08 128.93
  Q 276.34 128.75 259.33 128.95
  Q 256.11 128.99 253.83 128.01
  C 245.85 124.60 245.78 112.77 253.73 109.27
  Q 255.75 108.38 259.89 108.38
  Q 278.70 108.37 297.50 108.38
  Q 301.87 108.38 307.10 111.22
  Q 317.95 117.15 320.00 129.61
  Z"
/>
<rect fill="#000000" x="-10.22" y="-25.64" transform="translate(258.25,164.96) rotate(0.1)" width="20.44" height="51.28" rx="9.81"/>
<rect fill="#000000" x="-10.28" y="-20.53" transform="translate(137.55,204.29) rotate(-45.0)" width="20.56" height="41.06" rx="9.92"/>
</svg>
