<svg xmlns="http://www.w3.org/2000/svg" xmlns:xlink="http://www.w3.org/1999/xlink" width="320" height="320" viewBox="0 0 320 320" fill="none"><g opacity="1"  transform="translate(0 0)  rotate(0)"><rect fill="#000000" opacity="1" transform="translate(0 0)  rotate(0)" x="0" y="0" width="320" height="320" rx="64" ry="64"/><mask id="bg-mask-0" fill="white"><use transform="translate(0 0)  rotate(0)" xlink:href="#path_0"></use></mask><g mask="url(#bg-mask-0)" ><g opacity="1"  transform="translate(36 36)  rotate(0)"><mask id="bg-mask-1" fill="white"><use transform="translate(0 0)  rotate(0)" xlink:href="#path_1"></use></mask><g mask="url(#bg-mask-1)" ><path id="路径 1" fill-rule="evenodd" style="fill:#FFFFFF" opacity="1" d="M28.1713 139.407C28.3728 140.223 28.5743 140.223 28.7758 139.407C32.8574 122.941 36.9055 106.625 40.92 90.458C41.4521 88.3139 42.0386 86.862 42.6792 86.1025C44.6555 83.762 47.2905 84.0178 50.0572 83.979C54.4592 83.9093 57.5592 87.5518 56.4897 91.8453C50.0262 117.828 43.8366 142.799 37.9207 166.757C37.1458 169.911 34.7898 171.686 31.4495 171.732C29.3311 171.758 27.2541 171.753 25.2185 171.717C22.444 171.662 19.9253 170.027 19.2433 167.315C12.7591 141.507 6.45057 116.092 0.317746 91.0703C-0.325503 88.443 1.643 85.5368 3.96024 84.5293C5.81249 83.7233 7.69574 84.103 9.67977 84.01C12.586 83.8705 14.973 86.1568 15.6318 88.815C19.7599 105.452 23.9398 122.316 28.1713 139.407Z"></path><path id="路径 2" fill-rule="evenodd" style="fill:#FFFFFF" opacity="1" d="M104.284 115.514C104.186 112.915 104.183 109.954 104.276 106.632C104.377 102.897 101.626 100.107 97.8825 100.13C91.5275 100.182 85.7563 100.195 80.569 100.169C80.5494 100.168 80.5297 100.17 80.5101 100.173C80.4909 100.176 80.4723 100.182 80.4543 100.189C80.4357 100.196 80.4181 100.205 80.4016 100.216C80.3851 100.226 80.3698 100.238 80.3558 100.252C80.3419 100.266 80.3293 100.281 80.3179 100.297C80.307 100.313 80.2977 100.33 80.29 100.349C80.2822 100.367 80.2766 100.385 80.2729 100.405C80.2688 100.424 80.2667 100.444 80.2667 100.463C80.246 121.512 80.2487 142.693 80.2745 164.006C80.2745 166.253 79.5124 168.108 77.9882 169.57C72.9197 174.43 64.449 171.167 64.4412 163.967C64.4102 140.071 64.418 116.302 64.4645 92.659C64.4722 88.9545 65.8905 85.9088 69.5485 84.568C70.7575 84.1288 72.1086 83.9196 73.6017 83.9402C81.7805 84.0488 89.8302 84.0462 97.7507 83.9325C101.724 83.8808 104.845 84.1728 107.113 84.8083C112.863 86.4358 117.947 91.636 119.505 97.557C120.058 99.6599 120.303 102.264 120.241 105.369C120.133 110.732 120.128 116.095 120.226 121.458C120.277 124.486 119.926 126.676 119.172 128.03C117.658 130.742 115.126 132.07 111.577 132.013C107.423 131.946 102.695 131.957 97.3942 132.044C95.5807 132.075 94.0204 131.778 92.7132 131.153C88.5205 129.138 87.0635 123.814 89.59 119.838C91.1142 117.451 93.3487 116.209 96.2937 116.11C98.7324 116.023 101.205 116.017 103.71 116.095C104.108 116.105 104.299 115.912 104.284 115.514Z"></path><path id="路径 3" fill-rule="evenodd" style="fill:#FFFFFF" opacity="1" d="M128.503 99.386C129.782 92.5195 134.68 86.7148 141.531 84.7695C143.458 84.227 145.672 83.9609 148.172 83.9713C158.123 84.0126 167.395 84.0203 175.987 83.9945C184.357 83.979 187.124 95.2165 179.676 99.0373C178.524 99.6211 177.165 99.9104 175.6 99.9053C167.565 99.8691 159.286 99.8613 150.761 99.882C146.506 99.8975 144.119 102.773 144.127 106.795C144.163 121.572 144.163 135.788 144.127 149.443C144.119 153.21 146.994 155.814 150.691 155.798C159.459 155.767 167.937 155.765 176.127 155.79C181.939 155.814 185.582 161.781 183.334 166.896C181.913 170.135 179.219 171.753 175.251 171.747C165.822 171.722 156.509 171.722 147.312 171.747C142.76 171.758 138.694 170.356 135.114 167.539C130.402 163.825 128.077 158.418 128.139 151.319C128.257 138.056 128.26 124.382 128.146 110.298C128.1 104.568 128.219 100.931 128.503 99.386Z"></path><path id="路径 4" fill-rule="evenodd" style="fill:#FFFFFF" opacity="1" d="M248 100.479L248 155.008C245.82 166.095 239.002 171.647 227.548 171.662C217.333 171.678 208.263 171.672 200.337 171.647C196.793 171.631 194.313 170.056 192.897 166.919C190.565 161.727 194.323 155.798 200.144 155.783C208.498 155.767 217.067 155.765 225.85 155.775C226.982 155.78 228.018 155.501 228.958 154.938C231.446 153.465 232.089 151.342 232.081 148.629C232.066 135.516 232.063 121.401 232.074 106.283C232.074 102.501 229.33 99.9362 225.393 99.9129C217.111 99.8664 208.759 99.8613 200.337 99.8974C194.052 99.9207 190.123 93.7749 193.014 88.2027C193.954 86.3892 195.318 85.1647 197.106 84.5292C198.103 84.1727 199.495 83.9919 201.283 83.9867C216.199 83.9402 226.086 83.9738 230.942 84.0875C233.722 84.1546 236.551 85.1415 239.428 87.048C244.197 90.2048 247.054 94.6817 248 100.479Z"></path><path id="路径 5" fill-rule="evenodd" style="fill:#FFFFFF" opacity="1" d="M200.139 147.691L200.139 147.691C204.509 147.691 208.049 144.161 208.049 139.791L208.049 115.881C208.049 111.511 204.509 107.981 200.139 107.981L200.139 107.981C195.779 107.981 192.239 111.521 192.239 115.881L192.239 139.791C192.239 144.151 195.779 147.691 200.139 147.691Z"></path><path id="路径 6" fill-rule="evenodd" style="fill:#FFFFFF" opacity="1" d="M117.831 169.556L117.831 169.556C120.935 166.452 120.935 161.418 117.831 158.313L106.609 147.092C103.505 143.987 98.4702 143.987 95.366 147.092L95.366 147.092C92.2618 150.196 92.2618 155.23 95.366 158.335L106.588 169.556C109.692 172.661 114.727 172.661 117.831 169.556Z"></path></g></g></g></g><defs><rect id="path_0" x="0" y="0" width="320" height="320" rx="64" ry="64"/><rect id="path_1" x="0" y="0" width="248" height="248" rx="0" ry="0"/></defs></svg>