<svg width="24.000000" height="24.000000" viewBox="0 0 24 24" fill="none" xmlns="http://www.w3.org/2000/svg" xmlns:xlink="http://www.w3.org/1999/xlink">
	<desc>
			Created with Pixso.
	</desc>
	<defs>
		<clipPath id="clip455_423">
			<rect id="用户_用户" width="16.363638" height="16.363638" transform="translate(3.818359 3.818359)" fill="white" fill-opacity="0"/>
		</clipPath>
	</defs>
	<circle id="椭圆 12" cx="12.000000" cy="12.000000" r="12.000000" fill="#FFFFFF" fill-opacity="1.000000"/>
	<g clip-path="url(#clip455_423)">
		<path id="path" d="M11.8184 4.81836C11.7036 4.81836 11.5894 4.82422 11.4751 4.83545C11.3613 4.84668 11.248 4.86328 11.1357 4.88574C11.0229 4.9082 10.9121 4.93604 10.8022 4.96924C10.6929 5.00244 10.585 5.04102 10.479 5.08496C10.373 5.12842 10.2695 5.17773 10.1685 5.23145C10.0674 5.28564 9.96924 5.34473 9.87402 5.4082C9.77832 5.47168 9.68652 5.54004 9.59814 5.61279C9.50928 5.68555 9.42432 5.76221 9.34326 5.84326C9.26221 5.92432 9.18555 6.00928 9.11279 6.09814C9.04004 6.18652 8.97168 6.27832 8.9082 6.37402C8.84473 6.46924 8.78564 6.56738 8.73145 6.66846C8.67773 6.76953 8.62842 6.87305 8.58496 6.979C8.54102 7.08496 8.50244 7.19287 8.46924 7.30225C8.43555 7.41211 8.4082 7.52295 8.38574 7.63574C8.36328 7.74805 8.34668 7.86133 8.33545 7.9751C8.32373 8.08936 8.31836 8.20361 8.31836 8.31836C8.31836 8.43311 8.32373 8.54736 8.33545 8.66162C8.34668 8.77539 8.36328 8.88867 8.38574 9.00098C8.4082 9.11377 8.43555 9.22461 8.46924 9.33447C8.50244 9.44385 8.54102 9.55176 8.58496 9.65771C8.62842 9.76367 8.67773 9.86719 8.73145 9.96826C8.78564 10.0693 8.84473 10.1675 8.9082 10.2627C8.97168 10.3584 9.04004 10.4502 9.11279 10.5386C9.18555 10.6274 9.26221 10.7124 9.34326 10.7935C9.42432 10.8745 9.50928 10.9512 9.59814 11.0239C9.68652 11.0967 9.77832 11.165 9.87402 11.2285C9.96924 11.292 10.0674 11.3511 10.1685 11.4053C10.2695 11.459 10.373 11.5083 10.479 11.5518C10.585 11.5957 10.6929 11.6343 10.8022 11.6675C10.9121 11.7007 11.0229 11.7285 11.1357 11.751C11.248 11.7734 11.3613 11.79 11.4751 11.8013C11.5894 11.8125 11.7036 11.8184 11.8184 11.8184C11.9331 11.8184 12.0474 11.8125 12.1616 11.8013C12.2754 11.79 12.3887 11.7734 12.501 11.751C12.6138 11.7285 12.7246 11.7007 12.8345 11.6675C12.9438 11.6343 13.0518 11.5957 13.1577 11.5518C13.2637 11.5083 13.3672 11.459 13.4683 11.4053C13.5693 11.3511 13.6675 11.292 13.7627 11.2285C13.8584 11.165 13.9502 11.0967 14.0386 11.0239C14.1274 10.9512 14.2124 10.8745 14.2935 10.7935C14.3745 10.7124 14.4512 10.6274 14.5239 10.5386C14.5967 10.4502 14.665 10.3584 14.7285 10.2627C14.792 10.1675 14.8511 10.0693 14.9053 9.96826C14.959 9.86719 15.0083 9.76367 15.0518 9.65771C15.0957 9.55176 15.1343 9.44385 15.1675 9.33447C15.2007 9.22461 15.2285 9.11377 15.251 9.00098C15.2734 8.88867 15.29 8.77539 15.3013 8.66162C15.3125 8.54736 15.3184 8.43311 15.3184 8.31836C15.3184 8.20361 15.3125 8.08936 15.3013 7.9751C15.29 7.86133 15.2734 7.74805 15.251 7.63574C15.2285 7.52295 15.2007 7.41211 15.1675 7.30225C15.1343 7.19287 15.0957 7.08496 15.0518 6.979C15.0083 6.87305 14.959 6.76953 14.9053 6.66846C14.8511 6.56738 14.792 6.46924 14.7285 6.37402C14.665 6.27832 14.5967 6.18652 14.5239 6.09814C14.4512 6.00928 14.3745 5.92432 14.2935 5.84326C14.2124 5.76221 14.1274 5.68555 14.0386 5.61279C13.9502 5.54004 13.8584 5.47168 13.7627 5.4082C13.6675 5.34473 13.5693 5.28564 13.4683 5.23145C13.3672 5.17773 13.2637 5.12842 13.1577 5.08496C13.0518 5.04102 12.9438 5.00244 12.8345 4.96924C12.7246 4.93604 12.6138 4.9082 12.501 4.88574C12.3887 4.86328 12.2754 4.84668 12.1616 4.83545C12.0474 4.82422 11.9331 4.81836 11.8184 4.81836ZM11.8184 6.31836C11.8838 6.31836 11.9492 6.32178 12.0142 6.32812C12.0796 6.33447 12.1445 6.34424 12.2085 6.35693C12.2729 6.36963 12.3364 6.38525 12.3989 6.4043C12.4614 6.42334 12.5234 6.44531 12.5835 6.4707C12.644 6.49561 12.7036 6.52344 12.7612 6.55469C12.8188 6.58545 12.875 6.61914 12.9297 6.65527C12.9839 6.69189 13.0366 6.73096 13.0869 6.77246C13.1377 6.81396 13.186 6.85791 13.2324 6.9043C13.2788 6.95068 13.3228 6.99902 13.3643 7.0498C13.4058 7.1001 13.4448 7.15283 13.4814 7.20703C13.5176 7.26172 13.5513 7.31787 13.582 7.37549C13.6133 7.43311 13.6411 7.49268 13.666 7.55322C13.6914 7.61328 13.7134 7.67529 13.7324 7.73779C13.7515 7.80029 13.7671 7.86377 13.7798 7.92822C13.7925 7.99219 13.8022 8.05713 13.8086 8.12256C13.8149 8.1875 13.8184 8.25293 13.8184 8.31836C13.8184 8.38379 13.8149 8.44922 13.8086 8.51416C13.8022 8.57959 13.7925 8.64453 13.7798 8.7085C13.7671 8.77295 13.7515 8.83643 13.7324 8.89893C13.7134 8.96143 13.6914 9.02344 13.666 9.0835C13.6411 9.14404 13.6133 9.20361 13.582 9.26123C13.5513 9.31885 13.5176 9.375 13.4814 9.42969C13.4448 9.48389 13.4058 9.53662 13.3643 9.58691C13.3228 9.6377 13.2788 9.68604 13.2324 9.73242C13.186 9.77881 13.1377 9.82275 13.0869 9.86426C13.0366 9.90576 12.9839 9.94482 12.9297 9.98145C12.875 10.0176 12.8188 10.0513 12.7612 10.082C12.7036 10.1133 12.644 10.1411 12.5835 10.166C12.5234 10.1914 12.4614 10.2134 12.3989 10.2324C12.3364 10.2515 12.2729 10.2671 12.2085 10.2798C12.1445 10.2925 12.0796 10.3022 12.0142 10.3086C11.9492 10.3149 11.8838 10.3184 11.8184 10.3184C11.7529 10.3184 11.6875 10.3149 11.6226 10.3086C11.5571 10.3022 11.4922 10.2925 11.4282 10.2798C11.3638 10.2671 11.3003 10.2515 11.2378 10.2324C11.1753 10.2134 11.1133 10.1914 11.0532 10.166C10.9927 10.1411 10.9331 10.1133 10.8755 10.082C10.8179 10.0513 10.7617 10.0176 10.707 9.98145C10.6528 9.94482 10.6001 9.90576 10.5498 9.86426C10.499 9.82275 10.4507 9.77881 10.4043 9.73242C10.3579 9.68604 10.314 9.6377 10.2725 9.58691C10.231 9.53662 10.1919 9.48389 10.1553 9.42969C10.1191 9.375 10.0854 9.31885 10.0547 9.26123C10.0234 9.20361 9.99561 9.14404 9.9707 9.0835C9.94531 9.02344 9.92334 8.96143 9.9043 8.89893C9.88525 8.83643 9.86963 8.77295 9.85693 8.7085C9.84424 8.64453 9.83447 8.57959 9.82812 8.51416C9.82178 8.44922 9.81836 8.38379 9.81836 8.31836C9.81836 8.25293 9.82178 8.1875 9.82812 8.12256C9.83447 8.05713 9.84424 7.99219 9.85693 7.92822C9.86963 7.86377 9.88525 7.80029 9.9043 7.73779C9.92334 7.67529 9.94531 7.61328 9.9707 7.55322C9.99561 7.49268 10.0234 7.43311 10.0547 7.37549C10.0854 7.31787 10.1191 7.26172 10.1553 7.20703C10.1919 7.15283 10.231 7.1001 10.2725 7.0498C10.314 6.99902 10.3579 6.95068 10.4043 6.9043C10.4507 6.85791 10.499 6.81396 10.5498 6.77246C10.6001 6.73096 10.6528 6.69189 10.707 6.65527C10.7617 6.61914 10.8179 6.58545 10.8755 6.55469C10.9331 6.52344 10.9927 6.49561 11.0532 6.4707C11.1133 6.44531 11.1753 6.42334 11.2378 6.4043C11.3003 6.38525 11.3638 6.36963 11.4282 6.35693C11.4922 6.34424 11.5571 6.33447 11.6226 6.32812C11.6875 6.32178 11.7529 6.31836 11.8184 6.31836ZM17.0684 18.8184C17.0356 18.8184 17.0029 18.8149 16.9707 18.8086C16.9385 18.8022 16.9072 18.793 16.877 18.7803C16.8467 18.7676 16.8179 18.7524 16.7905 18.7339C16.7632 18.7158 16.7378 18.6953 16.7148 18.6719C16.6914 18.6484 16.6709 18.6235 16.6528 18.5962C16.6343 18.5688 16.6191 18.54 16.6064 18.5098C16.5938 18.4795 16.5845 18.4482 16.5781 18.416C16.5718 18.3838 16.5684 18.3511 16.5684 18.3184L16.5684 18.0684C16.5684 17.9834 16.5659 17.8994 16.5605 17.8159C16.4233 15.7397 14.6113 14.0439 12.2905 13.8389C12.1807 13.8286 12.0703 13.8228 11.9585 13.8203L11.8184 13.8184C11.7183 13.8184 11.6182 13.8208 11.5195 13.8262C9.49072 13.939 7.82031 15.189 7.26514 16.856C7.13672 17.25 7.07227 17.6538 7.07275 18.0684L7.07275 18.3184C7.07275 18.3511 7.06982 18.3838 7.06348 18.416C7.05664 18.4482 7.04736 18.4795 7.03467 18.5098C7.02246 18.54 7.00684 18.5688 6.98877 18.5962C6.97021 18.6235 6.94971 18.6484 6.92627 18.6719C6.90332 18.6953 6.87793 18.7158 6.85059 18.7339C6.82324 18.7524 6.79443 18.7676 6.76416 18.7803C6.73389 18.793 6.70264 18.8022 6.67041 18.8086C6.63818 18.8149 6.60547 18.8184 6.57275 18.8184L6.06836 18.8184C6.03564 18.8184 6.00293 18.8149 5.9707 18.8086C5.93848 18.8022 5.90723 18.793 5.87695 18.7803C5.84668 18.7676 5.81787 18.7524 5.79053 18.7339C5.76318 18.7158 5.73779 18.6953 5.71484 18.6719C5.69141 18.6484 5.6709 18.6235 5.65283 18.5962C5.63428 18.5688 5.61914 18.54 5.60645 18.5098C5.59375 18.4795 5.58447 18.4482 5.57812 18.416C5.57178 18.3838 5.56836 18.3511 5.56836 18.3184L5.56836 18.0684C5.56836 17.5229 5.65039 16.9951 5.80371 16.4966C6.51367 14.1479 8.78174 12.4595 11.4761 12.3262C11.7051 12.3154 11.9341 12.3154 12.1631 12.3267C15.3188 12.4839 17.8994 14.7896 18.0605 17.772C18.0654 17.8726 18.0684 17.9702 18.0684 18.0684L18.0684 18.3184C18.0684 18.3511 18.0649 18.3838 18.0586 18.416C18.0522 18.4482 18.043 18.4795 18.0303 18.5098C18.0176 18.54 18.0024 18.5688 17.9839 18.5962C17.9658 18.6235 17.9453 18.6484 17.9219 18.6719C17.8989 18.6953 17.8735 18.7158 17.8462 18.7339C17.8188 18.7524 17.79 18.7676 17.7598 18.7803C17.7295 18.793 17.6982 18.8022 17.666 18.8086C17.6338 18.8149 17.6011 18.8184 17.5684 18.8184L17.0684 18.8184Z" fill="#333333" fill-opacity="1.000000" fill-rule="nonzero"/>
	</g>
</svg>
