<svg width="1846.383301" height="1383.041504" viewBox="0 0 1846.38 1383.04" fill="none" xmlns="http://www.w3.org/2000/svg" xmlns:xlink="http://www.w3.org/1999/xlink">
	<desc>
			Created with Pixso.
	</desc>
	<defs>
		<filter id="filter_476_14_dd" x="0.000000" y="0.000000" width="1846.383301" height="1383.041504" filterUnits="userSpaceOnUse" color-interpolation-filters="sRGB">
			<feFlood flood-opacity="0" result="BackgroundImageFix"/>
			<feBlend mode="normal" in="SourceGraphic" in2="BackgroundImageFix" result="shape"/>
			<feGaussianBlur stdDeviation="133.333" result="effect_layerBlur_1"/>
		</filter>
	</defs>
	<g filter="url(#filter_476_14_dd)">
		<path id="矢量 242" d="M1445.46 816.353C1434.81 919.396 1334.91 993.561 1222.58 981.819C1110.25 970.077 1027.65 876.836 1038.3 773.792C1048.95 670.748 1148.85 596.583 1261.18 608.326C1373.51 620.068 1456.11 713.309 1445.46 816.353Z" fill="#4D3589" fill-opacity="1.000000" fill-rule="evenodd"/>
		<path id="矢量 242" d="M588.435 652.662C653.85 654.413 693.042 837.246 878.616 866.654C1004.38 886.583 634.648 970.713 564.106 888.044C504.26 817.911 506.203 650.462 588.435 652.662Z" fill="#00EAFF" fill-opacity="1.000000" fill-rule="evenodd"/>
		<path id="矢量 242" d="M860.589 753.861C863.959 721.257 887.71 699.302 932.921 704.027C973.08 708.226 1028.1 740.823 1073.98 733.221C1122.99 725.099 1174.57 705.529 1219.55 694.523C1273.45 681.333 1270.4 686.192 1320.88 715.282C1365.54 741.023 1365.17 800.329 1316.44 837.381C1250.14 887.797 853.558 821.892 860.589 753.861Z" fill="#BADAFF" fill-opacity="1.000000" fill-rule="evenodd"/>
		<path id="矢量 242" d="M659.663 611.439C621.803 740.181 625.753 855.08 668.475 867.786C711.197 880.493 776.654 786.236 814.514 657.495C852.374 528.753 848.424 413.854 805.702 401.147C762.979 388.441 697.523 482.698 659.663 611.439Z" fill="#0025CE" fill-opacity="1.000000" fill-rule="evenodd"/>
		<path id="矢量 242" d="M645.903 631.819C645.903 701.222 590.794 757.599 522.952 757.599C455.109 757.599 400 701.222 400 631.819C400 562.415 455.109 506.039 522.952 506.039C590.794 506.039 645.903 562.415 645.903 631.819Z" fill="#FF3D67" fill-opacity="1.000000" fill-rule="evenodd"/>
	</g>
</svg>
