<svg width="22.000000" height="22.000000" viewBox="0 0 22 22" fill="none" xmlns="http://www.w3.org/2000/svg" xmlns:xlink="http://www.w3.org/1999/xlink">
	<desc>
			Created with Pixso.
	</desc>
	<defs/>
	<path id="矢量 48" d="M11 17C9.40869 17 7.88281 16.3677 6.75732 15.2427C5.63232 14.1172 5 12.5913 5 11C5 9.40869 5.63232 7.88281 6.75732 6.75732C7.88281 5.63232 9.40869 5 11 5C12.5913 5 14.1172 5.63232 15.2427 6.75732C16.3677 7.88281 17 9.40869 17 11C17 12.5913 16.3677 14.1172 15.2427 15.2427C14.1172 16.3677 12.5913 17 11 17ZM10 0L12 0L12 3L10 3L10 0ZM10 19L12 19L12 22L10 22L10 19ZM2.51514 3.9292L3.9292 2.51514L6.0498 4.63623L4.63623 6.0498L2.51514 3.93018L2.51514 3.9292ZM15.9502 17.3638L17.3638 15.9502L19.4849 18.0708L18.0708 19.4849L15.9502 17.3638ZM18.0708 2.51416L19.4849 3.9292L17.3638 6.0498L15.9502 4.63623L18.0708 2.51514L18.0708 2.51416ZM4.63623 15.9502L6.0498 17.3638L3.9292 19.4849L2.51514 18.0708L4.63623 15.9502L4.63623 15.9502ZM22 10L22 12L19 12L19 10L22 10ZM3 10L3 12L0 12L0 10L3 10Z" fill="#000000" fill-opacity="1.000000" fill-rule="evenodd"/>
</svg>
