<svg width="24.000000" height="24.000000" viewBox="0 0 24 24" fill="none" xmlns="http://www.w3.org/2000/svg" xmlns:xlink="http://www.w3.org/1999/xlink">
	<desc>
			Created with Pixso.
	</desc>
	<defs/>
	<path id="矢量 34" d="M11.2671 0C10.3823 0.824707 9.67236 1.81934 9.17969 2.92432C8.6875 4.0293 8.42285 5.22217 8.40137 6.43164C8.37988 7.6416 8.60254 8.84277 9.05566 9.96484C9.50879 11.0864 10.1831 12.1055 11.0386 12.9609C11.894 13.8164 12.9131 14.4907 14.0347 14.9438C15.1567 15.397 16.3584 15.6191 17.5679 15.5981C18.7773 15.5767 19.9702 15.312 21.0757 14.8193C22.1807 14.3271 23.1753 13.6172 24 12.7319C23.6182 19.02 18.3975 24 12.0132 24C5.37793 24 0 18.6226 0 11.9888C0 5.60449 4.97998 0.384277 11.2671 0Z" fill="#FFFFFF" fill-opacity="1.000000" fill-rule="evenodd"/>
</svg>
