<svg width="24.000000" height="24.000000" viewBox="0 0 24 24" fill="none" xmlns="http://www.w3.org/2000/svg" xmlns:xlink="http://www.w3.org/1999/xlink">
	<desc>
			Created with Pixso.
	</desc>
	<defs/>
	<path id="github" d="M12 0C18.6299 0 24 5.50586 24 12.3037C23.9995 14.8813 23.2104 17.394 21.7437 19.4883C20.2773 21.582 18.207 23.1519 15.8252 23.9766C15.2251 24.0996 15 23.7148 15 23.3921C15 22.9771 15.0151 21.6543 15.0151 20.0088C15.0151 18.855 14.6401 18.1167 14.2051 17.7324C16.875 17.4248 19.6802 16.3789 19.6802 11.6577C19.6802 10.3042 19.2148 9.2124 18.4502 8.35107C18.5698 8.04346 18.9902 6.78223 18.3301 5.09082C18.3301 5.09082 17.3252 4.75244 15.0298 6.35156C14.0698 6.07471 13.0498 5.93652 12.0298 5.93652C11.0098 5.93652 9.99023 6.07471 9.02979 6.35156C6.73486 4.76758 5.72998 5.09082 5.72998 5.09082C5.06982 6.78223 5.49023 8.04346 5.60986 8.35107C4.84521 9.2124 4.37988 10.3198 4.37988 11.6577C4.37988 16.3638 7.16992 17.4248 9.83984 17.7324C9.49512 18.04 9.18018 18.5781 9.0752 19.3779C8.38477 19.7012 6.66016 20.2241 5.58008 18.3628C5.35498 17.9941 4.68018 17.0864 3.73486 17.1021C2.72998 17.1172 3.33008 17.6865 3.75 17.917C4.25977 18.209 4.84521 19.3013 4.97998 19.6548C5.22021 20.3472 6 21.6694 9.01514 21.1006C9.01514 22.1309 9.02979 23.1001 9.02979 23.3921C9.02979 23.7148 8.80518 24.084 8.20508 23.9766C5.81494 23.1606 3.73633 21.5942 2.26318 19.499C0.790527 17.4038 -0.00146484 14.8862 0 12.3037C0 5.50586 5.37012 0 12 0Z" fill="#FFFFFF" fill-opacity="1.000000" fill-rule="nonzero"/>
</svg>
