<svg width="19.000488" height="24.000000" viewBox="0 0 19.0005 24" fill="none" xmlns="http://www.w3.org/2000/svg" xmlns:xlink="http://www.w3.org/1999/xlink">
	<desc>
			Created with Pixso.
	</desc>
	<defs/>
	<path id="path" d="M18.3442 15.0347C18.1147 14.272 17.8633 13.5176 17.5898 12.7715L16.5728 10.0762C16.5728 10.0449 16.5859 9.51465 16.5859 9.24121C16.5859 4.63184 14.5376 0 9.50049 0C4.46289 0 2.41455 4.63184 2.41455 9.23975C2.41455 9.51465 2.42676 10.0449 2.42773 10.0762L1.41064 12.7715C1.1333 13.543 0.857422 14.3457 0.65625 15.0347C-0.304688 18.3188 0.00683594 19.6787 0.243652 19.7085C0.752441 19.7734 2.22314 17.2368 2.22314 17.2368C2.22314 18.7056 2.93506 20.623 4.47656 22.0078C3.90088 22.1963 3.19434 22.4868 2.73975 22.8418C2.33154 23.1621 2.3833 23.4897 2.45703 23.6216C2.77979 24.1992 7.99463 23.9902 9.50146 23.8101C11.0068 23.9902 16.2231 24.1992 16.5449 23.6206C16.6187 23.4888 16.6699 23.1621 16.2622 22.8418C15.8071 22.4868 15.1006 22.1963 14.5239 22.0068C16.0654 20.623 16.7773 18.7056 16.7773 17.2354C16.7773 17.2354 18.248 19.7734 18.7568 19.7075C18.9937 19.6772 19.3052 18.3188 18.3442 15.0347Z" fill="#000000" fill-opacity="1.000000" fill-rule="nonzero"/>
</svg>
